<style>
.uparrow{
    
}
</style>
<svg version="1.1" xmlns="http://www.w3.org/2000/svg" xmlns:xlink="http://www.w3.org/1999/xlink" x="0px" y="0px" viewBox="0 0 1000 1000" enable-background="new 0 0 1000 1000" xml:space="preserve">
<g><g transform="translate(0.000000,511.000000) scale(0.100000,-0.100000)"><path d="M4448.8,4980.2c-568.6-66.7-1114.1-229.2-1639.2-490.3C1802.9,3985,967.4,3106,511.9,2076C-387.5,33.5,221.7-2371.6,1991.5-3752.6c2117.9-1650.8,5141-1296.8,6829.5,800.8c1424.5,1769.7,1439,4273.5,40.6,6069.4C7811.4,4463.7,6128.6,5171.6,4448.8,4980.2z M5458.5,4838c580.3-60.9,1047.3-191.5,1566.7-435.2C8197.2,3845.8,9090.8,2842,9497,1620.5c339.5-1024.2,339.5-1998.9,0-3023.1c-467.1-1404.2-1581.2-2518.3-2985.4-2985.4c-1024.1-339.5-1998.9-339.5-3023.1,0c-1015.4,336.5-1882.9,1009.6-2474.8,1920.6C123.1-1097.9,4.1,634.1,694.6,2105c377.2,803.6,940,1465.1,1679.8,1961.2c252.4,171.2,826.9,452.6,1125.7,554.1C4109.4,4823.5,4828.9,4904.7,5458.5,4838z"/>
<path d="M4347.3,4533.4C2977.9,4310,1849.3,3547,1141.4,2363.3c-638.3-1067.7-783.3-2469-380.1-3670.1c504.8-1508.6,1772.7-2625.6,3368.3-2968c443.9-95.8,1302.6-95.8,1740.7-2.9c916.8,200.2,1624.7,583.1,2277.5,1238.8c655.7,652.8,1038.6,1360.7,1238.8,2277.5c92.9,438.1,92.9,1296.9-2.9,1740.7c-182.8,861.7-562.8,1587-1148.9,2202C7576.4,3869,6793,4304.2,5873.3,4492.8C5496.2,4571.1,4707.1,4591.4,4347.3,4533.4z M5754.4,4214.2c1720.4-330.7,3011.5-1624.7,3353.8-3365.4c72.5-359.8,72.5-1119.9,0-1479.6c-168.3-855.9-562.8-1604.4-1163.4-2204.9c-600.6-600.6-1349.1-995.1-2204.9-1163.4c-359.8-72.5-1119.9-72.5-1479.6,0c-2399.3,472.9-3879,2759.1-3307.4,5112c403.3,1665.3,1830.7,2927.3,3556.9,3144.9C4802.8,4292.6,5455.6,4269.4,5754.4,4214.2z"/>
<path d="M4889.8,3816.8c-23.2-23.2-34.8-168.3-34.8-458.4c0-377.2,5.8-432.3,52.2-472.9c69.6-63.8,130.6-60.9,188.6,2.9c40.6,46.4,49.3,124.8,49.3,472.9c0,452.6-11.6,490.3-145.1,490.3C4959.5,3851.6,4910.1,3837.1,4889.8,3816.8z"/>
<path class="uparrow" d="M5768.9,2279.1c-525.1-687.6-966.1-1264.9-977.7-1282.3c-11.6-23.2,46.4-31.9,203.1-31.9c177,0,252.4-17.4,365.5-69.6c174.1-87,333.6-240.8,406.2-394.6c31.9-63.8,60.9-101.5,63.8-87c5.8,17.4,214.7,719.5,461.3,1560.9c249.5,844.3,449.7,1537.7,443.9,1543.5C6729.2,3523.7,6296.9,2966.7,5768.9,2279.1z"/>
<path d="M2389,2667.9c0-75.4,275.6-336.6,330.7-316.3c75.4,29,52.2,87-92.8,232.1C2484.7,2725.9,2389,2757.8,2389,2667.9z"/>
<path d="M7370.4,2580.8c-145.1-145.1-165.4-200.2-90-229.2c55.1-20.3,330.8,240.8,330.8,316.3C7611.2,2760.7,7512.5,2723,7370.4,2580.8z"/>
<path class="center" d="M4724.5,692.1c-496.1-229.2-481.6-966.1,20.3-1175c223.4-95.7,528-40.6,702.1,121.9c255.3,237.9,255.3,702.1,0,940C5267,747.3,4950.8,796.6,4724.5,692.1z M5298.9,506.5c290.1-220.5,246.6-690.5-84.2-847.2c-150.8-72.5-382.9-49.3-513.5,52.2c-287.2,217.6-246.6,681.8,72.5,844.3C4918.8,628.3,5168.3,605.1,5298.9,506.5z"/>
<path d="M1292.3,219.2c-20.3-20.3-34.8-69.6-34.8-110.2c0-133.5,37.7-145,493.2-145c377.2,0,432.3,5.8,472.9,52.2c63.8,69.6,60.9,130.6-2.9,188.6c-46.4,40.6-124.8,49.3-472.9,49.3C1457.7,254.1,1315.5,242.5,1292.3,219.2z"/>
<path d="M7776.6,201.8c-63.8-69.6-60.9-130.6,2.9-188.6c46.4-40.6,124.7-49.3,472.9-49.3c452.6,0,490.3,11.6,490.3,145s-37.7,145.1-493.2,145.1C7872.3,254.1,7817.2,248.2,7776.6,201.8z"/>
<path class="downarrow" d="M3714.8-1736.2c-252.4-855.9-455.5-1557.9-449.7-1563.8c8.7-8.7,1894.5,2439.9,1943.8,2521.2c11.6,23.2-46.4,31.9-203.1,34.8c-174.1,0-255.3,17.4-368.5,69.6c-171.2,84.1-330.7,237.9-400.4,385.9c-29,58-55.1,107.4-58,107.4C4176.1-181.1,3967.2-880.3,3714.8-1736.2z"/>
<path d="M2568.8-2220.7c-179.9-182.8-226.3-281.4-127.7-281.4c72.5,0,391.7,327.8,377.2,391.7C2800.9-2014.7,2751.6-2035,2568.8-2220.7z"/>
<path d="M7242.7-2171.4c-20.3-55.1,240.8-330.7,316.2-330.7c92.9,0,55.1,98.6-87,240.8C7326.9-2116.3,7271.7-2095.9,7242.7-2171.4z"/>
<path d="M4904.3-2670.4c-40.6-46.4-49.3-124.8-49.3-472.9c0-452.6,11.6-490.3,145.1-490.3c133.4,0,145.1,37.7,145.1,493.2c0,377.2-5.8,432.3-52.2,472.9C5023.3-2603.7,4962.4-2606.6,4904.3-2670.4z"/></g></g>
</svg>